<svg width="44" height="44" viewBox="0 0 44 44" fill="none" xmlns="http://www.w3.org/2000/svg">
<path d="M3.67029 22.0037C3.67242 31.0225 10.2307 38.7017 19.1381 40.1152V27.302H14.487V22.0037H19.1436V17.9703C18.9355 16.0592 19.5882 14.1544 20.925 12.7727C22.2617 11.391 24.1438 10.6755 26.0608 10.8203C27.4368 10.8426 28.8093 10.9651 30.1675 11.187V15.6952H27.8501C27.0523 15.5907 26.2503 15.8542 25.6699 16.4114C25.0895 16.9686 24.7935 17.7593 24.8655 18.5607V22.0037H29.9456L29.1335 27.3038H24.8655V40.1152C34.4987 38.5928 41.2538 29.7949 40.2371 20.0953C39.2203 10.3957 30.7877 3.18987 21.0481 3.69816C11.3086 4.20645 3.67184 12.2509 3.67029 22.0037Z" fill="#F8F9FA"/>
</svg>
