<svg width="47" height="47" viewBox="0 0 47 47" fill="none" xmlns="http://www.w3.org/2000/svg">
<path d="M23.504 41.2053C18.6865 41.2053 18.1185 41.1798 16.2385 41.0976C14.7725 41.0493 13.3254 40.7513 11.9596 40.2163C9.59649 39.2967 7.72791 37.4274 6.80918 35.0639C6.29473 33.6932 6.01726 32.2449 5.98863 30.7811C5.87897 28.905 5.87897 28.2901 5.87897 23.5098C5.87897 18.6786 5.90443 18.1146 5.98863 16.2443C6.01789 14.7825 6.29535 13.3362 6.80918 11.9673C7.72691 9.60076 9.59853 7.72985 11.9655 6.81302C13.3336 6.29641 14.7803 6.01821 16.2425 5.99052C18.1127 5.88477 18.7276 5.88477 23.504 5.88477C28.3606 5.88477 28.9188 5.91022 30.7694 5.99052C32.2354 6.01845 33.6858 6.29662 35.0581 6.81302C37.4244 7.73089 39.2956 9.60144 40.2144 11.9673C40.7375 13.3562 41.0165 14.8251 41.0389 16.309C41.1485 18.1851 41.1485 18.798 41.1485 23.5763C41.1485 28.3547 41.1211 28.9813 41.0389 30.8359C41.0097 32.3011 40.7316 33.7507 40.2164 35.1227C39.2953 37.4878 37.4239 39.3577 35.0581 40.277C33.6878 40.7905 32.2403 41.0679 30.7772 41.0976C28.907 41.2053 28.294 41.2053 23.504 41.2053ZM23.4374 8.98481C18.6473 8.98481 18.1499 9.00831 16.2797 9.09252C15.1634 9.1073 14.0579 9.3133 13.0112 9.70156C11.4656 10.293 10.2426 11.511 9.64484 13.0542C9.25359 14.1123 9.04757 15.2299 9.0358 16.3579C8.93201 18.2556 8.93201 18.753 8.93201 23.5098C8.93201 28.2098 8.94963 28.7796 9.0358 30.6655C9.05333 31.7822 9.25924 32.8878 9.64484 33.9359C10.2435 35.4781 11.4663 36.6952 13.0112 37.2866C14.0572 37.6775 15.1631 37.8836 16.2797 37.8957C18.1753 38.0053 18.6747 38.0053 23.4374 38.0053C28.2412 38.0053 28.7386 37.9818 30.5931 37.8957C31.7102 37.8821 32.8165 37.6761 33.8635 37.2866C35.3998 36.6901 36.6149 35.4757 37.2123 33.9398C37.6028 32.8809 37.8088 31.7628 37.8213 30.6342H37.8429C37.9271 28.762 37.9271 28.2626 37.9271 23.4784C37.9271 18.6942 37.9055 18.1909 37.8213 16.3207C37.8038 15.2054 37.5979 14.101 37.2123 13.0542C36.6162 11.5161 35.401 10.2994 33.8635 9.70156C32.8167 9.31134 31.7102 9.10529 30.5931 9.09252C28.6994 8.98481 28.204 8.98481 23.4374 8.98481ZM23.504 32.5553C19.8419 32.5577 16.539 30.3536 15.1357 26.971C13.7325 23.5884 14.5052 19.6936 17.0936 17.103C19.682 14.5124 23.5762 13.7363 26.96 15.1366C30.3438 16.5369 32.5507 19.8379 32.5515 23.5C32.5461 28.4958 28.4998 32.5456 23.504 32.5553ZM23.504 17.6211C20.2593 17.6211 17.629 20.2514 17.629 23.4961C17.629 26.7407 20.2593 29.3711 23.504 29.3711C26.7486 29.3711 29.379 26.7407 29.379 23.4961C29.3714 20.2545 26.7455 17.6286 23.504 17.6211ZM32.904 16.2248C31.7396 16.2204 30.7986 15.2742 30.8007 14.1098C30.8029 12.9454 31.7474 12.0026 32.9118 12.0026C34.0762 12.0026 35.0207 12.9454 35.0229 14.1098C35.0234 14.6715 34.8002 15.2104 34.4026 15.6073C34.005 16.0041 33.4657 16.2263 32.904 16.2248Z" fill="#F8F9FA"/>
</svg>
