<svg width="48" height="48" viewBox="0 0 48 48" fill="none" xmlns="http://www.w3.org/2000/svg">
<path d="M36.908 13.3584C38.7009 12.2866 40.0424 10.5989 40.682 8.6104C38.9973 9.61 37.1541 10.3142 35.232 10.6924C32.5672 7.87345 28.345 7.18745 24.9248 9.01771C21.5046 10.848 19.733 14.7414 20.6 18.5224C13.6992 18.1759 7.26993 14.9162 2.912 9.5544C0.63768 13.4772 1.79991 18.492 5.568 21.0144C4.20542 20.9706 2.87305 20.6017 1.682 19.9384C1.682 19.9744 1.682 20.0104 1.682 20.0464C1.68279 24.1327 4.56274 27.6526 8.568 28.4624C7.30413 28.8063 5.97841 28.8569 4.692 28.6104C5.8184 32.1049 9.0391 34.499 12.71 34.5704C9.66966 36.9567 5.91495 38.2507 2.05 38.2444C1.36494 38.2454 0.680421 38.206 0 38.1264C3.92478 40.6485 8.49274 41.9871 13.158 41.9824C19.6485 42.027 25.8861 39.4682 30.4755 34.8784C35.0648 30.2887 37.6231 24.0509 37.578 17.5604C37.578 17.1884 37.5693 16.8184 37.552 16.4504C39.2329 15.2356 40.6836 13.7307 41.836 12.0064C40.27 12.7005 38.6089 13.1562 36.908 13.3584Z" fill="#F8F9FA"/>
</svg>
